<svg xmlns="http://www.w3.org/2000/svg" viewBox="0 0 162.1 162.1" fill="#0069FF">
  <path d="M81.1 0C36.3 0 0 36.3 0 81.1c0 44.7 36.3 81.1 81.1 81.1 44.7 0 81.1-36.3 81.1-81.1C162.1 36.3 125.8 0 81.1 0zm0 137.4V113c-17.7 0-31.9-14.2-31.9-31.9S63.4 49.2 81.1 49.2s31.9 14.2 31.9 31.9H136c0-30.3-24.6-54.9-54.9-54.9S26.2 50.8 26.2 81.1s24.6 54.9 54.9 54.9v22.6c-42.7 0-77.4-34.7-77.4-77.4S38.4 3.7 81.1 3.7s77.4 34.7 77.4 77.4-34.7 77.4-77.4 77.4z"/>
  <path d="M81.1 113v24.3c-30.9 0-55.9-25-55.9-55.9h24.3c0 17.4 14.2 31.6 31.6 31.6z"/>
  <path d="M49.5 105.8H25.2v-24.7h24.3v24.7zm24.7 24.7H49.5v-24.3h24.7v24.3z"/>
</svg>
